<?xml version="1.0" encoding="utf-8"?>
<!-- Generator: Adobe Illustrator 19.1.0, SVG Export Plug-In . SVG Version: 6.00 Build 0)  -->
<svg version="1.1" id="Layer_1" xmlns="http://www.w3.org/2000/svg" xmlns:xlink="http://www.w3.org/1999/xlink" x="0px" y="0px"
	 viewBox="0 0 810 576" enable-background="new 0 0 810 576" xml:space="preserve">
<path id="cloud_1_" fill="#FFFFFF" d="M810,218.1c0-96.8-78.4-175.2-175.2-175.2c-28.5,0-55.4,6.8-79.2,18.9
	c-43.2-37-99.2-59.3-160.5-59.3c-106.2,0-196.7,67-231.6,161C72.2,169.5,0,245.5,0,338.3C0,435,78.4,513.5,175.2,513.5
	c43.3,0,83-15.7,113.5-41.8l81.4-123.6h-68.7L525,109L404.4,295.2l58,0.3L379,504.9c32,41.7,82.4,68.6,139,68.6
	c96.8,0,175.2-78.4,175.2-175.2c0-5-0.2-9.9-0.6-14.7C760.9,359.7,810,294.6,810,218.1z"/>
</svg>
