<?xml version="1.0" encoding="utf-8"?>
<!-- Generator: Adobe Illustrator 19.1.0, SVG Export Plug-In . SVG Version: 6.00 Build 0)  -->
<svg version="1.1" id="Layer_1" xmlns="http://www.w3.org/2000/svg" xmlns:xlink="http://www.w3.org/1999/xlink" x="0px" y="0px"
	 viewBox="0 0 864 864" enable-background="new 0 0 864 864" xml:space="preserve">
<path id="cloud_1_" fill="#FFFFFF" d="M837,362.1c0-96.8-78.4-175.2-175.2-175.2c-28.5,0-55.4,6.8-79.2,18.9
	c-43.2-37-99.2-59.3-160.5-59.3c-106.2,0-196.7,67-231.6,161c-91.3,6-163.4,82-163.4,174.8c0,96.8,78.4,175.2,175.2,175.2
	c43.3,0,83-15.7,113.5-41.8l81.4-123.6h-68.7L552,253L431.4,439.2l58,0.3L406,648.9c32,41.7,82.4,68.6,139,68.6
	c96.8,0,175.2-78.4,175.2-175.2c0-5-0.2-9.9-0.6-14.7C787.9,503.7,837,438.6,837,362.1z"/>
</svg>
