<?xml version="1.0" encoding="utf-8"?>
<!-- Generator: Adobe Illustrator 19.1.0, SVG Export Plug-In . SVG Version: 6.00 Build 0)  -->
<svg version="1.1" xmlns="http://www.w3.org/2000/svg" xmlns:xlink="http://www.w3.org/1999/xlink" x="0px" y="0px"
	 viewBox="0 0 1000 1000" enable-background="new 0 0 1000 1000" xml:space="preserve">
<g id="avatar">
	<circle fill="none" stroke="#000000" stroke-width="5" stroke-miterlimit="10" cx="500" cy="500" r="497"/>
	<circle stroke="#000000" stroke-width="5" stroke-miterlimit="10" cx="500" cy="400" r="175"/>
	<path stroke="#000000" stroke-width="5" stroke-miterlimit="10" d="M500,250L255.4,932.7c163.1,85.7,326.1,85.7,489.2,0L500,250"/>
</g>
<g id="filled" display="none">
	
		<line fill="none" stroke="#000000" stroke-width="5" stroke-linecap="round" stroke-linejoin="round" stroke-miterlimit="10" x1="333" y1="968.2" x2="666" y2="404.1"/>
	
		<line fill="none" stroke="#000000" stroke-width="5" stroke-linecap="round" stroke-linejoin="round" stroke-miterlimit="10" x1="666" y1="404.1" x2="533.5" y2="404.1"/>
	
		<line fill="none" stroke="#000000" stroke-width="5" stroke-linecap="round" stroke-linejoin="round" stroke-miterlimit="10" x1="454.7" y1="500" x2="322.3" y2="500"/>
	
		<line fill="none" stroke="#000000" stroke-width="5" stroke-linecap="round" stroke-linejoin="round" stroke-miterlimit="10" x1="454.7" y1="500" x2="333" y2="968.2"/>
	
		<path fill="#FFFFFF" stroke="#000000" stroke-width="5" stroke-linecap="round" stroke-linejoin="round" stroke-miterlimit="10" d="
		M500,3c55.3-0.3,110.7,9.2,166,28.4"/>
	
		<line fill="none" stroke="#000000" stroke-width="5" stroke-linecap="round" stroke-linejoin="round" stroke-miterlimit="10" x1="500" y1="3" x2="322.3" y2="500"/>
	
		<line fill="none" stroke="#000000" stroke-width="5" stroke-linecap="round" stroke-linejoin="round" stroke-miterlimit="10" x1="666" y1="31.4" x2="533.5" y2="404.1"/>
	
		<path display="inline" stroke="#000000" stroke-width="5" stroke-linecap="round" stroke-linejoin="round" stroke-miterlimit="10" d="
		M500,3c55.3-0.3,110.7,9.2,166,28.4L533.5,404.1H666L333,968.2L454.7,500H322.3L500,3z"/>
</g>
<g id="outline" display="none">
	<circle display="inline" fill="#FFFFFF" stroke="#000000" stroke-width="5" stroke-miterlimit="10" cx="500" cy="500" r="497"/>
	<line fill="none" stroke="#000000" stroke-width="5" stroke-miterlimit="10" x1="-1.9" y1="666" x2="1000" y2="666"/>
	<line fill="none" stroke="#000000" stroke-width="5" stroke-miterlimit="10" x1="333" y1="3" x2="333" y2="1000"/>
	<line fill="none" stroke="#000000" stroke-width="5" stroke-miterlimit="10" x1="666" y1="1.5" x2="666" y2="998.5"/>
	<line fill="none" stroke="#000000" stroke-width="5" stroke-miterlimit="10" x1="333" y1="968.2" x2="666" y2="31.4"/>
	<path fill="none" stroke="#000000" stroke-width="5" stroke-miterlimit="10" d="M333,333"/>
	<path fill="none" stroke="#000000" stroke-width="5" stroke-miterlimit="10" d="M500,3"/>
	<line fill="none" stroke="#000000" stroke-width="5" stroke-miterlimit="10" x1="0" y1="404.1" x2="1007.1" y2="404.1"/>
	
		<line display="inline" fill="none" stroke="#000000" stroke-width="5" stroke-linecap="round" stroke-linejoin="round" stroke-miterlimit="10" x1="333" y1="968.2" x2="666" y2="404.1"/>
	
		<line display="inline" fill="none" stroke="#000000" stroke-width="5" stroke-linecap="round" stroke-linejoin="round" stroke-miterlimit="10" x1="666" y1="404.1" x2="533.5" y2="404.1"/>
	
		<line display="inline" fill="none" stroke="#000000" stroke-width="5" stroke-linecap="round" stroke-linejoin="round" stroke-miterlimit="10" x1="454.7" y1="500" x2="322.3" y2="500"/>
	<line fill="none" stroke="#000000" stroke-width="5" stroke-miterlimit="10" x1="533.5" y1="404.1" x2="689.6" y2="-35"/>
	<line fill="none" stroke="#000000" stroke-width="5" stroke-miterlimit="10" x1="322.3" y1="501.5" x2="517.4" y2="-47.5"/>
	
		<line display="inline" fill="none" stroke="#000000" stroke-width="5" stroke-linecap="round" stroke-linejoin="round" stroke-miterlimit="10" x1="454.7" y1="500" x2="333" y2="968.2"/>
	<line fill="none" stroke="#000000" stroke-width="5" stroke-miterlimit="10" x1="517.4" y1="-47.5" x2="689.6" y2="-35"/>
	
		<path display="inline" fill="#FFFFFF" stroke="#000000" stroke-width="5" stroke-linecap="round" stroke-linejoin="round" stroke-miterlimit="10" d="
		M500,3c55.3-0.3,110.7,9.2,166,28.4"/>
	
		<line display="inline" fill="none" stroke="#000000" stroke-width="5" stroke-linecap="round" stroke-linejoin="round" stroke-miterlimit="10" x1="500" y1="3" x2="322.3" y2="500"/>
	
		<line display="inline" fill="none" stroke="#000000" stroke-width="5" stroke-linecap="round" stroke-linejoin="round" stroke-miterlimit="10" x1="666" y1="31.4" x2="533.5" y2="404.1"/>
</g>
<g id="Layer_2" display="none">
	<circle display="inline" fill="#FFFFFF" stroke="#000000" stroke-width="5" stroke-miterlimit="10" cx="500" cy="500" r="497"/>
	
		<line display="inline" fill="none" stroke="#000000" stroke-width="5" stroke-miterlimit="10" x1="308.9" y1="958.2" x2="641.9" y2="394.1"/>
	
		<line display="inline" fill="none" stroke="#000000" stroke-width="5" stroke-miterlimit="10" x1="641.9" y1="394.1" x2="509.4" y2="394.1"/>
	
		<line display="inline" fill="none" stroke="#000000" stroke-width="5" stroke-miterlimit="10" x1="430.7" y1="490" x2="298.2" y2="490"/>
	
		<line display="inline" fill="none" stroke="#000000" stroke-width="5" stroke-miterlimit="10" x1="509.4" y1="394.1" x2="665.5" y2="-45"/>
	
		<line display="inline" fill="none" stroke="#000000" stroke-width="5" stroke-miterlimit="10" x1="298.2" y1="491.5" x2="493.3" y2="-57.5"/>
	
		<line display="inline" fill="none" stroke="#000000" stroke-width="5" stroke-miterlimit="10" x1="430.7" y1="490" x2="308.9" y2="958.2"/>
</g>
</svg>
